<svg xmlns="http://www.w3.org/2000/svg" width="89.556" height="60.149" viewBox="0 0 89.556 60.149"><g transform="translate(-335.222 -275.895)"><path d="M406.569,327.015c-1.7,3.095.863,7.283.193,7.576-.361.158-1.472-.893-5.2-7.576l-25.652,0c-9.229,0-16.711-7.931-16.712-17.716V295.117c0-9.786,7.48-17.719,16.709-17.72l30.659,0c9.229,0,16.711,7.931,16.712,17.716V309.3c-.43,7.467-2.731,10.844-4.894,12.529C414.076,325.181,408.527,323.445,406.569,327.015Z" fill="#bd635d" stroke="#725547" stroke-linecap="round" stroke-linejoin="round" stroke-width="3"/><path d="M351.014,329.395c.794,2.125-2.029,4.856-1.633,5.184.248.2,1.55-.7,5.915-5.184l21.94,0a14.308,14.308,0,0,0,14.294-14.321V303.611a14.306,14.306,0,0,0-14.291-14.323l-26.222,0a14.307,14.307,0,0,0-14.294,14.321v11.465c.368,6.035,2.336,8.765,4.186,10.127C344.812,328.074,350.038,326.786,351.014,329.395Z" fill="#edccc3" stroke="#725547" stroke-linecap="round" stroke-linejoin="round" stroke-width="3"/></g></svg>