<svg xmlns="http://www.w3.org/2000/svg" viewBox="600 600 400 400" xmlns:v="https://vecta.io/nano"><defs><filter color-interpolation-filters="sRGB" id="A"><feFlood flood-opacity=".749" flood-color="#000"/><feComposite in2="SourceGraphic" operator="in"/><feGaussianBlur stdDeviation="5"/><feOffset dx="6" dy="6"/><feComposite in="SourceGraphic"/></filter></defs><g transform="translate(50 50)" stroke="#846859" filter="url(#A)" stroke-width="3"><path fill="#ca7970" d="M919.19 683.52v75.51c0 29.64-21.64 54.22-49.98 58.8 1.38 8.71 5.69 20.89 18.45 29.36 0 0-38.73-2.48-44.29-28.58H713.92c-32.91 0-59.58-26.67-59.58-59.58v-75.51c0-32.9 26.67-59.58 59.58-59.58h145.7c32.9 0 59.57 26.68 59.57 59.58z"/><path stroke-miterlimit="10" stroke-linejoin="round" fill="#f1c1c3" d="M798.4 745.71v45.95c0 30.67-24.86 55.53-55.53 55.53h-89.15c-5.33 26.37-44.35 28.87-44.35 28.87 12.85-8.51 17.13-20.79 18.48-29.51-26.64-4.09-47.04-27.11-47.04-54.89v-45.95c0-30.66 24.86-55.53 55.53-55.53h106.53c30.67 0 55.53 24.87 55.53 55.53z"/></g></svg>