<svg xmlns="http://www.w3.org/2000/svg" viewBox="450 450 600 600" xmlns:v="https://vecta.io/nano"><defs><radialGradient id="A" cx="-1627.052" cy="1499.606" r=".821" gradientTransform="matrix(270,0,0,-270,440053.97,405661.25)" gradientUnits="userSpaceOnUse"><stop offset="0" stop-color="#e5eaee"/><stop offset="1" stop-color="#bad6e7"/></radialGradient><filter id="B" color-interpolation-filters="sRGB"><feFlood flood-color="#000" flood-opacity=".749"/><feComposite operator="in" in2="SourceGraphic"/><feGaussianBlur stdDeviation="5"/><feOffset dy="6" dx="6"/><feComposite in="SourceGraphic"/></filter></defs><circle cx="750" cy="767.7" r="221.77" fill="url(#A)" stroke="#846859" stroke-width="5" filter="url(#B)"/><g transform="translate(398.371 31.841)" filter="url(#B)" stroke="#846859" stroke-width="5"><g stroke-linejoin="round"><path d="M488.219 837.529c10.01 38.67 13.67 78.7 10.83 118.54a840.26 840.26 0 0 1-139.12 9.74c-47.84-.63-95.55-5.34-142.59-14.08.89-38.45 5.68-76.72 14.3-114.21 14.15-61.6 21.23-92.4 48.11-113.76 39.75-31.6 105.46-30.94 148.22-1.73 36.73 25.08 47.05 64.75 60.25 115.5z" fill="#ede2b6"/><g fill="#ca7970"><path d="M333.819 745.719l45.65-2.03-14.74 44.21-16.18.29z"/><path d="M330.059 850.319l18.49-62.12 16.18-.29 18.49 63.85-26.27 85.52z"/></g><g fill="#ede2b6"><path d="M360.339 743.699l20.83 39.01 50.38-58.13z"/><path d="M357.199 743.699l-20.83 39.01-50.38-58.13z"/></g><g fill="#f5d1c7"><circle r="47.24" cy="631.859" cx="231.639"/></g></g><path d="M539.799 636.199c0 26.09-21.15 47.24-47.24 47.24h0c-2.87 0-5.74-.26-8.57-.78-25.23 44.53-72.47 72.05-123.65 72.02-78.49 0-142.13-63.62-142.13-142.11 0-73.33 55.79-134.62 128.79-141.5.54-.07 1.09-.1 1.63-.15 3.85-.33 7.77-.47 11.71-.47 69.65.01 129.03 50.48 140.26 119.21 22.65 3.9 39.2 23.55 39.2 46.54z" fill="#f5d1c7"/><g stroke-linejoin="round"><g fill="#846859"><path d="M347.709 501.459c-10.57 85.96-129.5 111.1-129.5 111.1 0-73.33 55.79-134.62 128.79-141.5a92.26 92.26 0 0 1 .78 5.94 104.77 104.77 0 0 1-.07 24.46z"/><path d="M502.449 612.559s-143.71-16.38-154.75-111.07c-.01-.01-.01-.02 0-.03-.92-8.12-.9-16.31.07-24.43v-.03a105.68 105.68 0 0 1 .7-5.19l.15-.9c3.85-.33 7.77-.47 11.71-.47 78.5 0 142.12 63.63 142.12 142.12z"/><circle r="13.87" cy="631.859" cx="307.719"/><circle r="13.87" cy="631.859" cx="386.599"/></g><path d="M315.289 661.069c1.71 1.88 14.89 15.94 35.54 14.74a45.36 45.36 0 0 0 30.34-14.74" fill="none" stroke-linecap="round"/><path d="M489.949 657.279c.02-5.9 1.04-11.75 3.03-17.3a51.33 51.33 0 0 1 7.3-13.53c7.21-.11 13.94 2.89 17.04 8.33 5.51 9.69-1.99 24.54-12.64 26.78-7.13 1.49-13.33-3.19-14.73-4.28z" fill="#ede2b6"/><path d="M424.739 685.909s35.74 21.61 65.21-28.64" fill="none" stroke-linecap="round"/><ellipse ry="19.07" rx="13.45" cy="559.442" cx="-576.325" transform="rotate(282.68)" fill="#ede2b6"/></g></g></svg>