<svg xmlns="http://www.w3.org/2000/svg" viewBox="450 450 600 600" xmlns:v="https://vecta.io/nano"><style><![CDATA[.B{stroke:#846859}.C{stroke-width:5}.D{stroke-linejoin:round}.E{filter:url(#B)}.F{fill:#846859}]]></style><defs><radialGradient gradientUnits="userSpaceOnUse" gradientTransform="matrix(270,0,0,-270,177.4,405661.25)" r=".821" cy="1499.673" cx="2.121" id="A"><stop offset="0" stop-color="#e5eaee"/><stop offset="1" stop-color="#bad6e7"/></radialGradient><filter id="B" color-interpolation-filters="sRGB"><feFlood flood-opacity=".749" flood-color="#000"/><feComposite in2="SourceGraphic" operator="in"/><feGaussianBlur stdDeviation="5"/><feOffset dx="6" dy="6"/><feComposite in="SourceGraphic"/></filter></defs><circle r="221.77" cy="749.53" cx="750" fill="url(#A)" class="B C E"/><g class="E"><path d="M782.43 741.32c-22.5 24.17-51.52 41.31-83.55 49.33-12.34 3-24.99 4.51-37.68 4.5-12.69.01-25.34-1.49-37.67-4.48-32.03-8.03-61.05-25.16-83.55-49.34 22.5-24.19 51.53-41.32 83.58-49.34a158.56 158.56 0 0 1 37.64-4.48 159.1 159.1 0 0 1 37.65 4.48c32.05 8.01 61.08 25.15 83.58 49.33z" fill="#fff" class="B C D"/><path d="M723.28 741.32c.02 19.35-9 37.6-24.4 49.33-12.34 3-24.99 4.51-37.68 4.5-12.69.01-25.34-1.49-37.67-4.48-15.39-11.74-24.41-29.99-24.4-49.34-.02-19.36 9.02-37.61 24.42-49.34a158.56 158.56 0 0 1 37.64-4.48 159.1 159.1 0 0 1 37.65 4.48c15.42 11.71 24.45 29.97 24.44 49.33z" class="F"/><g fill="#ede2b6" class="B C D"><path d="M722.52 598.45s21.39 313.4-16.36 373.8h231.48V592.33c2.56-16.44-215.12 6.12-215.12 6.12z"/><path d="M937.67 554.35v61.26H706.16c-10.14 0-18.37-13.72-18.37-30.64s8.23-30.62 18.37-30.62z"/></g><ellipse cx="937.67" cy="584.97" rx="18.38" ry="30.63" class="B C D F"/><path d="M846.57 652.49h71.96v98.05h-71.96z" fill="#bad6e7" class="B C D"/><g fill="none" stroke-linecap="round" class="B C D"><path d="M744.79 652.49h82.06"/><path d="M744.79 674.13h82.06"/><path d="M744.79 695.77h82.06"/><path d="M744.79 717.42h82.06"/><path d="M744.79 739.06h82.06"/><path d="M744.79 760.7h82.06"/><path d="M744.79 782.34h173.74"/><path d="M744.79 804.07h173.74"/><path d="M744.79 825.8h173.74"/><path d="M744.79 847.53h173.74"/></g><path d="M862.96 877.11h39.18c9.2 0 16.65 7.45 16.65 16.65s-7.45 16.65-16.65 16.65h-39.18c-9.2 0-16.65-7.45-16.65-16.65s7.46-16.65 16.65-16.65z" fill="#bad6e7" class="B C D"/><text y="899.638" x="864.179" font-size="14.693" font-family="Quicksand-Bold" letter-spacing="1" class="F">Next</text></g></svg>