<svg xmlns="http://www.w3.org/2000/svg" viewBox="450 450 600 600" xmlns:v="https://vecta.io/nano"><defs><radialGradient id="A" cx="-3268.455" cy="1499.671" r=".821" gradientTransform="matrix(270,0,0,-270,883227.19,405661.25)" gradientUnits="userSpaceOnUse"><stop offset="0" stop-color="#e5eaee"/><stop offset="1" stop-color="#bad6e7"/></radialGradient><filter id="B" color-interpolation-filters="sRGB"><feFlood flood-color="#000" flood-opacity=".749"/><feComposite operator="in" in2="SourceGraphic"/><feGaussianBlur stdDeviation="5"/><feOffset dy="6" dx="6"/><feComposite in="SourceGraphic"/></filter></defs><circle cx="744.3" cy="750" r="221.77" fill="url(#A)" stroke="#846859" stroke-width="5" filter="url(#B)"/><g filter="url(#B)" stroke="#846859" stroke-width="5" stroke-linejoin="round"><path d="M910.787 750.87a151.88 151.88 0 0 0 32.76 35.94s-41.86 5.27-72.5-23.54a247.19 247.19 0 0 1-50.46 5.09c-86.64 0-156.86-43.11-156.86-96.3s70.23-96.3 156.86-96.3c86.64 0 156.88 43.12 156.88 96.3 0 32.58-26.34 61.38-66.68 78.81z" fill="#ede2b6"/><g fill="#bad6e7"><circle r="11.36" cy="677.11" cx="758.607"/><circle r="11.36" cy="677.11" cx="820.847"/><circle r="11.36" cy="677.11" cx="883.097"/><path d="M789.637 793.93c0 50.5-59.72 91.42-133.37 91.42-14.46.03-28.88-1.6-42.98-4.85-32.33 28.91-75.3 21.21-75.3 21.21 13.87-9.88 25.98-22.01 35.83-35.91-31.01-16.74-50.92-42.71-50.92-71.87 0-50.5 59.71-91.43 133.38-91.43 73.65 0 133.36 40.93 133.36 91.43z"/></g><g fill="#ede2b6"><circle r="9.65" cy="803.1" cx="603.417"/><circle r="9.65" cy="803.1" cx="656.257"/><circle r="9.65" cy="803.1" cx="709.107"/></g></g></svg>