<svg xmlns="http://www.w3.org/2000/svg" xmlns:xlink="http://www.w3.org/1999/xlink" width="61.219" height="59.478" viewBox="0 0 61.219 59.478"><defs><filter id="a" x="0" y="0" width="61.219" height="59.478" filterUnits="userSpaceOnUse"><feOffset dy="3" input="SourceAlpha"/><feGaussianBlur stdDeviation="3" result="b"/><feFlood flood-opacity="0.161"/><feComposite operator="in" in2="b"/><feComposite in="SourceGraphic"/></filter></defs><g transform="matrix(1, 0, 0, 1, 0, 0)" filter="url(#a)"><path d="M19.364,1.336l-4.9,9.937L3.5,12.872a2.4,2.4,0,0,0-1.328,4.1L10.1,24.7,8.226,35.621a2.4,2.4,0,0,0,3.483,2.529l9.81-5.156,9.81,5.156a2.4,2.4,0,0,0,3.483-2.529L32.934,24.7l7.933-7.731a2.4,2.4,0,0,0-1.328-4.1l-10.965-1.6-4.9-9.937a2.4,2.4,0,0,0-4.308,0Z" transform="translate(9.09 7.5)" fill="#fffae7" stroke="#5b4c43" stroke-width="3"/></g></svg>